# xmcd
#
# Track frame offsets:
#	150
#	16494
#	33071
#	52817
#	71708
#	84058
#	96538
#	114474
#	133135
#	150634
#	171110
#
# Disc length: 2759 seconds
#
# Revision: 1
# Processed by: cddbd v1.5.1PL0 Copyright (c) Steve Scherf et al.
# Submitted via: audiograbber 1.83.01
#
DISCID=840ac50b
DTITLE=The Great Divide - Absolutely Live At Tumbleweed Vol. 2
DYEAR=2003
DGENRE=Country
TTITLE0=Billy Covington
TTITLE1=Never Could
TTITLE2=Break In The Storm
TTITLE3=Nowhere Woman
TTITLE4=Wyle E. Coyote
TTITLE5=Coming Up Vrows
TTITLE6=If Not For You
TTITLE7=Me and Billy The Kid
TTITLE8=Round That Bend
TTITLE9=College Days
TTITLE10=Floods
EXTD=
EXTT0=
EXTT1=
EXTT2=
EXTT3=
EXTT4=
EXTT5=
EXTT6=
EXTT7=
EXTT8=
EXTT9=
EXTT10=
PLAYORDER=
